<?xml version="1.0" encoding="iso-8859-1"?>
<!-- Generator: Adobe Illustrator 19.0.0, SVG Export Plug-In . SVG Version: 6.00 Build 0)  -->
<svg version="1.1" id="Capa_1" xmlns="http://www.w3.org/2000/svg" xmlns:xlink="http://www.w3.org/1999/xlink" x="0px" y="0px"
	 viewBox="0 0 511.998 511.998" style="enable-background:new 0 0 511.998 511.998;" xml:space="preserve">
<path style="fill:#4A94CC;" d="M477.324,511.934h-186.91c-19.121,0-34.675-15.555-34.675-34.675V290.35
	c0-19.12,15.554-34.675,34.675-34.675h186.91c19.12,0,34.674,15.555,34.674,34.675v186.909
	C511.998,496.378,496.444,511.934,477.324,511.934z"/>
<path style="fill:#3BBC56;" d="M221.586,511.934H34.676C15.554,511.934,0,496.378,0,477.258V290.35
	c0-19.12,15.554-34.675,34.676-34.675h186.91c19.12,0,34.674,15.555,34.674,34.675v186.909
	C256.26,496.378,240.706,511.934,221.586,511.934z"/>
<path style="fill:#FFA92C;" d="M477.324,256.324h-186.91c-19.121,0-34.675-15.555-34.675-34.676V34.74
	c0-19.12,15.554-34.675,34.675-34.675h186.91c19.12,0,34.674,15.555,34.674,34.675v186.908
	C511.998,240.768,496.444,256.324,477.324,256.324z"/>
<path style="fill:#EA473B;" d="M221.586,256.324H34.676C15.554,256.324,0,240.768,0,221.648V34.74
	C0,15.62,15.554,0.064,34.676,0.064h186.91c19.12,0,34.674,15.555,34.674,34.675v186.908
	C256.26,240.768,240.706,256.324,221.586,256.324z"/>
<path style="fill:#358CB7;" d="M276.384,477.258V290.35c0-19.12,15.554-34.675,34.675-34.675h-20.646
	c-19.121,0-34.675,15.555-34.675,34.675v186.909c0,19.12,15.554,34.675,34.675,34.675h20.646
	C291.939,511.934,276.384,496.378,276.384,477.258z"/>
<path style="fill:#2EAF43;" d="M20.647,477.258V290.35c0-19.12,15.554-34.675,34.675-34.675H34.676
	C15.554,255.674,0,271.23,0,290.35v186.909c0,19.12,15.554,34.675,34.676,34.675h20.647
	C36.201,511.934,20.647,496.378,20.647,477.258z"/>
<path style="fill:#F4911C;" d="M276.384,221.648V34.74c0-19.12,15.554-34.675,34.675-34.675h-20.646
	c-19.121,0-34.675,15.555-34.675,34.675v186.908c0,19.12,15.554,34.676,34.675,34.676h20.646
	C291.939,256.324,276.384,240.768,276.384,221.648z"/>
<path style="fill:#DD312C;" d="M20.647,221.648V34.74c0-19.12,15.554-34.675,34.675-34.675H34.676C15.554,0.064,0,15.62,0,34.74
	v186.908c0,19.12,15.554,34.676,34.676,34.676h20.647C36.201,256.324,20.647,240.768,20.647,221.648z"/>
<g>
	<path style="fill:#E5E5E5;" d="M214.926,202.603c0,6.841-5.546,12.388-12.388,12.388H53.722c-6.842,0-12.388-5.547-12.388-12.388
		V53.785c0-6.841,5.546-12.388,12.388-12.388h148.816c6.842,0,12.388,5.547,12.388,12.388V202.603z"/>
	<path style="fill:#E5E5E5;" d="M470.664,202.603c0,6.841-5.546,12.388-12.388,12.388H309.46c-6.842,0-12.388-5.547-12.388-12.388
		V53.785c0-6.841,5.546-12.388,12.388-12.388h148.816c6.842,0,12.388,5.547,12.388,12.388V202.603z"/>
	<path style="fill:#E5E5E5;" d="M214.926,458.213c0,6.841-5.546,12.388-12.388,12.388H53.722c-6.842,0-12.388-5.547-12.388-12.388
		V309.395c0-6.841,5.546-12.388,12.388-12.388h148.816c6.842,0,12.388,5.547,12.388,12.388V458.213z"/>
	<path style="fill:#E5E5E5;" d="M470.664,458.213c0,6.841-5.546,12.388-12.388,12.388H309.46c-6.842,0-12.388-5.547-12.388-12.388
		V309.395c0-6.841,5.546-12.388,12.388-12.388h148.816c6.842,0,12.388,5.547,12.388,12.388V458.213z"/>
</g>
<g>
	<path style="fill:#C6CBCC;" d="M61.981,202.603V53.785c0-6.841,5.546-12.388,12.388-12.388H53.722
		c-6.842,0-12.388,5.547-12.388,12.388v148.817c0,6.841,5.546,12.388,12.388,12.388h20.647
		C67.527,214.991,61.981,209.444,61.981,202.603z"/>
	<path style="fill:#C6CBCC;" d="M317.718,202.603V53.785c0-6.841,5.547-12.388,12.388-12.388H309.46
		c-6.842,0-12.388,5.547-12.388,12.388v148.817c0,6.841,5.546,12.388,12.388,12.388h20.646
		C323.265,214.991,317.718,209.444,317.718,202.603z"/>
	<path style="fill:#C6CBCC;" d="M61.981,458.213V309.395c0-6.841,5.546-12.388,12.388-12.388H53.722
		c-6.842,0-12.388,5.547-12.388,12.388v148.817c0,6.841,5.546,12.388,12.388,12.388h20.647
		C67.527,470.601,61.981,465.054,61.981,458.213z"/>
	<path style="fill:#C6CBCC;" d="M317.718,458.213V309.395c0-6.841,5.547-12.388,12.388-12.388H309.46
		c-6.842,0-12.388,5.547-12.388,12.388v148.817c0,6.841,5.546,12.388,12.388,12.388h20.646
		C323.265,470.601,317.718,465.054,317.718,458.213z"/>
</g>
<g>
	<path style="fill:#585A60;" d="M95.672,158.61V99.935c0-6.367,6.977-10.304,12.426-7.01l48.537,29.338
		c5.265,3.18,5.264,10.835,0,14.019l-48.537,29.336C102.648,168.914,95.672,164.978,95.672,158.61z"/>
	<path style="fill:#585A60;" d="M95.672,413.142v-58.675c0-6.367,6.977-10.304,12.426-7.01l48.537,29.338
		c5.265,3.18,5.264,10.835,0,14.019l-48.537,29.336C102.648,423.446,95.672,419.509,95.672,413.142z"/>
	<path style="fill:#585A60;" d="M361.157,167.572c-4.276,0-7.742-3.466-7.742-7.742V98.715c0-4.276,3.467-7.742,7.742-7.742
		c4.276,0,7.742,3.466,7.742,7.742v61.114C368.899,164.106,365.433,167.572,361.157,167.572z"/>
	<path style="fill:#585A60;" d="M160.589,429.074c-4.276,0-7.742-3.466-7.742-7.742v-75.055c0-4.276,3.466-7.742,7.742-7.742
		s7.742,3.466,7.742,7.742v75.055C168.332,425.608,164.865,429.074,160.589,429.074z"/>
	<path style="fill:#585A60;" d="M406.579,167.572c-4.276,0-7.742-3.466-7.742-7.742V98.715c0-4.276,3.467-7.742,7.742-7.742
		c4.276,0,7.742,3.466,7.742,7.742v61.114C414.321,164.106,410.855,167.572,406.579,167.572z"/>
	<path style="fill:#585A60;" d="M377.11,367.06l-32.432-19.604c-5.448-3.293-12.427,0.643-12.427,7.01v58.675
		c0,6.369,6.98,10.302,12.427,7.009l32.432-19.602V367.06z"/>
	<path style="fill:#585A60;" d="M376.077,413.142v-58.675c0-6.367,6.976-10.304,12.426-7.01l48.537,29.338
		c5.265,3.18,5.264,10.835,0,14.019l-48.537,29.336C383.053,423.446,376.077,419.509,376.077,413.142z"/>
</g>
<g>
	<path style="fill:#434449;" d="M117.142,98.391l-9.043-5.466c-5.449-3.293-12.426,0.643-12.426,7.01v58.675
		c0,6.385,6.993,10.294,12.426,7.009l9.043-5.466C116.884,158.818,116.886,99.724,117.142,98.391z"/>
	<path style="fill:#434449;" d="M117.142,352.922l-9.043-5.466c-5.449-3.293-12.426,0.643-12.426,7.01v58.675
		c0,6.385,6.993,10.294,12.426,7.009l9.043-5.466C116.884,413.349,116.886,354.256,117.142,352.922z"/>
	<path style="fill:#434449;" d="M353.72,352.922l-9.043-5.466c-5.448-3.293-12.427,0.643-12.427,7.01v58.675
		c0,6.369,6.98,10.302,12.427,7.009l9.043-5.465C353.457,413.318,353.466,354.237,353.72,352.922z"/>
	<path style="fill:#434449;" d="M397.547,352.922l-9.043-5.466c-5.449-3.293-12.426,0.643-12.426,7.01v58.675
		c0,6.364,6.975,10.305,12.426,7.009l9.043-5.466C397.284,413.321,397.293,354.247,397.547,352.922z"/>
</g>
<g>
</g>
<g>
</g>
<g>
</g>
<g>
</g>
<g>
</g>
<g>
</g>
<g>
</g>
<g>
</g>
<g>
</g>
<g>
</g>
<g>
</g>
<g>
</g>
<g>
</g>
<g>
</g>
<g>
</g>
</svg>
